<svg xmlns="http://www.w3.org/2000/svg" viewBox="0 0 64 64" role="img" aria-label="Mada Wine and Beer">
  <defs>
    <linearGradient id="mwBottle" x1="0" y1="0" x2="0" y2="1">
      <stop offset="0" stop-color="#107246"/>
      <stop offset=".55" stop-color="#0b5634"/>
      <stop offset="1" stop-color="#042617"/>
    </linearGradient>
  </defs>

  <!-- tampa -->
  <rect x="24" y="1" width="16" height="7" rx="2" fill="#f3c75f"/>

  <!-- gargalo -->
  <rect x="26" y="6" width="12" height="13" fill="url(#mwBottle)"/>

  <!-- corpo da garrafa -->
  <path d="M26 15
           C 19 17, 5 21, 5 33
           L 5 55
           Q 5 63, 13 63
           L 51 63
           Q 59 63, 59 55
           L 59 33
           C 59 21, 45 17, 38 15
           Z" fill="url(#mwBottle)"/>

  <!-- M serifado clássico (estilo tipográfico do século XIX) -->
  <g fill="#f3c75f" transform="translate(9.6 11.7) scale(0.7)">
    <path d="M11 35 L24 35 L24 38.2 L21.3 38.2 L31.2 51.5 L41.1 38.2 L40 38.2 L40 35
             L53 35 L53 38.2 L50.4 38.2 L50.4 53.3 L53 53.3 L53 56.5 L42.5 56.5 L42.5 53.3
             L45.2 53.3 L45.2 41.5 L35.6 54.4 L31 54.4 L21.3 41.4 L21.3 53.3 L25 53.3 L25 56.5
             L11 56.5 L11 53.3 L16 53.3 L16 38.2 L11 38.2 Z"/>
  </g>
</svg>
